# xmcd
#
# Track frame offsets:
#	150
#	22436
#	50383
#	70225
#	104551
#	129451
#	155681
#	178531
#	202901
#	227543
#	250128
#	277184
#	300513
#
# Disc length: 4383 seconds
#
# Revision: 1
# Processed by: cddbd v1.5.2PL0 Copyright (c) Steve Scherf et al.
# Submitted via: audiograbber 1.83.01
#
DISCID=b8111d0d
DTITLE=MegaJump Vol 1 CD 1 - MegaJump Vol 1
DYEAR=2007
DGENRE=
TTITLE0=Rocco- Alright
TTITLE1=Naksi - Somewhere over the rainbow
TTITLE2=Tom Mountain - Happy together
TTITLE3=Alex M. - Rock the house
TTITLE4=Picco - Wild and Sick
TTITLE5=Maziano - Take control harder
TTITLE6=Techoboy - Intro deep
TTITLE7=Enerdizer and Tron - Funky Bastradz
TTITLE8=4 Elements - I want you to hold me
TTITLE9=Franky B. - Loveshooter
TTITLE10=DJ Mikesh - Kolumbien
TTITLE11=Coone and Ghost - Pitch up
TTITLE12=Lars Palmas - Hope for revolution
EXTD=
EXTT0=
EXTT1=
EXTT2=
EXTT3=
EXTT4=
EXTT5=
EXTT6=
EXTT7=
EXTT8=
EXTT9=
EXTT10=
EXTT11=
EXTT12=
PLAYORDER=
